<?xml version="1.0" encoding="UTF-8"?>
<!-- (c) Carrd Inc. All rights reserved. All logos and trademarks are property of their respective owners. -->
<svg xmlns="http://www.w3.org/2000/svg" version="1.1" xmlns:xlink="http://www.w3.org/1999/xlink" viewBox="0 0 40 40" display="none" width="0" height="0">
	<symbol id="globe" viewBox="0 0 40 40"><path d="M20,3C10.6,3,3,10.6,3,20s7.6,17,17,17s17-7.6,17-17S29.4,3,20,3z M34.8,18.9h-6.2c-0.1-2.2-0.3-4.2-0.8-6.1 c1.5-0.4,3-0.9,4.2-1.5c0.6,0.9,1.2,1.8,1.6,2.9C34.3,15.7,34.7,17.3,34.8,18.9z M25.7,26.7c-1.5-0.3-3.1-0.4-4.6-0.5v-5.1h5.4 c-0.1,1.8-0.3,3.5-0.6,5.1C25.8,26.3,25.8,26.5,25.7,26.7z M14.2,26.2c-0.3-1.6-0.6-3.3-0.6-5.1h5.4v5.1c-1.6,0-3.2,0.2-4.6,0.5 C14.2,26.5,14.2,26.3,14.2,26.2z M14.3,13.3c1.5,0.3,3.1,0.4,4.6,0.5v5.1h-5.4c0.1-1.8,0.3-3.5,0.6-5.1 C14.2,13.7,14.2,13.5,14.3,13.3z M21.1,5.4C21.4,5.6,21.7,5.7,22,6c0.8,0.7,1.6,1.7,2.2,3c0.4,0.7,0.7,1.5,0.9,2.3 c-1.3,0.2-2.7,0.4-4,0.4V5.4z M18,6c0.3-0.3,0.6-0.4,0.9-0.6v6.2c-1.4,0-2.8-0.2-4-0.4c0.3-0.8,0.6-1.6,0.9-2.3 C16.5,7.7,17.2,6.7,18,6z M18.9,28.4v6.2c-0.3-0.1-0.6-0.3-0.9-0.6c-0.8-0.7-1.6-1.7-2.2-3c-0.4-0.7-0.7-1.5-0.9-2.3 C16.2,28.6,17.5,28.4,18.9,28.4z M22,34c-0.3,0.3-0.6,0.4-0.9,0.6v-6.2c1.4,0,2.8,0.2,4,0.4c-0.3,0.8-0.6,1.6-0.9,2.3 C23.5,32.3,22.8,33.3,22,34z M21.1,18.9v-5.1c1.6,0,3.2-0.2,4.6-0.5c0,0.2,0.1,0.4,0.1,0.5c0.3,1.6,0.6,3.3,0.6,5.1H21.1z M30.5,9.5 c0,0,0.1,0.1,0.1,0.1c-1,0.4-2.2,0.8-3.4,1.1c-0.6-1.9-1.4-3.5-2.4-4.8c0.3,0.1,0.6,0.2,0.9,0.3C27.5,7.1,29.1,8.1,30.5,9.5z M14.2,6.3c0.3-0.1,0.6-0.2,0.9-0.3c-0.9,1.3-1.7,2.9-2.4,4.8c-1.2-0.3-2.3-0.7-3.4-1.1c0,0,0.1-0.1,0.1-0.1 C10.9,8.1,12.5,7.1,14.2,6.3z M7.9,11.4c1.3,0.6,2.7,1.1,4.2,1.5c-0.4,1.9-0.7,3.9-0.8,6.1H5.2c0.1-1.6,0.5-3.2,1.1-4.7 C6.8,13.2,7.3,12.3,7.9,11.4z M5.2,21.1h6.2c0.1,2.2,0.3,4.2,0.8,6.1c-1.5,0.4-3,0.9-4.2,1.5c-0.6-0.9-1.2-1.8-1.6-2.9 C5.7,24.3,5.3,22.7,5.2,21.1z M9.5,30.5c0,0-0.1-0.1-0.1-0.1c1-0.4,2.2-0.8,3.4-1.1c0.6,1.9,1.4,3.5,2.4,4.8 c-0.3-0.1-0.6-0.2-0.9-0.3C12.5,32.9,10.9,31.9,9.5,30.5z M25.8,33.7c-0.3,0.1-0.6,0.2-0.9,0.3c0.9-1.3,1.7-2.9,2.4-4.8 c1.2,0.3,2.3,0.7,3.4,1.1c0,0-0.1,0.1-0.1,0.1C29.1,31.9,27.5,32.9,25.8,33.7z M32.1,28.6c-1.3-0.6-2.7-1.1-4.2-1.5 c0.4-1.9,0.7-3.9,0.8-6.1h6.2c-0.1,1.6-0.5,3.2-1.1,4.7C33.2,26.8,32.7,27.7,32.1,28.6z"/></symbol>
	<symbol id="arrow-right-alt-light" viewBox="0 0 40 40"><path d="M12.9,32.4L25.3,20L13,7.6c-0.2-0.2-0.2-0.5,0-0.7l1.6-1.6c0.2-0.2,0.5-0.2,0.7,0L29.8,20L15.1,34.6c-0.2,0.2-0.5,0.2-0.7,0 l-1.6-1.6C12.7,32.9,12.7,32.6,12.9,32.4z"/></symbol>
	<symbol id="mobile" viewBox="0 0 40 40"><path d="M22.2,34.9c0-0.6-0.2-1.2-0.7-1.6c-0.4-0.4-1-0.7-1.6-0.7s-1.2,0.2-1.6,0.7c-0.4,0.4-0.7,1-0.7,1.6c0,0.6,0.2,1.2,0.7,1.6 s1,0.7,1.6,0.7c0.6,0,1.2-0.2,1.6-0.7S22.2,35.6,22.2,34.9z M28.2,30.4V10.2c0-0.2-0.1-0.5-0.3-0.6c-0.2-0.2-0.4-0.3-0.6-0.3H12.6 c-0.2,0-0.5,0.1-0.6,0.3c-0.2,0.2-0.3,0.4-0.3,0.6v20.1c0,0.2,0.1,0.5,0.3,0.6c0.2,0.2,0.4,0.3,0.6,0.3h14.6c0.2,0,0.5-0.1,0.6-0.3 C28.1,30.8,28.2,30.6,28.2,30.4z M22.7,6.1c0-0.3-0.2-0.5-0.5-0.5h-4.6c-0.3,0-0.5,0.2-0.5,0.5c0,0.3,0.2,0.5,0.5,0.5h4.6 C22.5,6.6,22.7,6.4,22.7,6.1z M30.9,5.6v29.3c0,1-0.4,1.9-1.1,2.6c-0.7,0.7-1.6,1.1-2.6,1.1H12.6c-1,0-1.9-0.4-2.6-1.1 c-0.7-0.7-1.1-1.6-1.1-2.6V5.6c0-1,0.4-1.9,1.1-2.6C10.8,2.3,11.6,2,12.6,2h14.6c1,0,1.9,0.4,2.6,1.1C30.6,3.8,30.9,4.6,30.9,5.6z" /></symbol>
	<symbol id="facebook" viewBox="0 0 40 40"><path d="M38,20.1c0-9.9-8.1-18-18-18S2,10.1,2,20.1s5.8,15.5,13.7,17.5v-12h-3.7v-5.5h3.7v-2.4c0-6.1,2.8-9,8.8-9s3.1.2,3.9.4v5c-.4,0-1.2,0-2.1,0-3,0-4.1,1.1-4.1,4v1.9h5.9l-1,5.5h-4.9v12.4c8.9-1.1,15.8-8.7,15.8-17.9Z"/></symbol>
	<symbol id="whatsapp" viewBox="0 0 40 40"><path d="M24.9,21.9c0.2,0,0.9,0.3,2.1,1c1.2,0.6,1.9,1,1.9,1.1c0,0.1,0,0.2,0,0.3c0,0.5-0.1,1-0.4,1.6c-0.2,0.6-0.7,1-1.5,1.4 s-1.5,0.6-2.2,0.6c-0.8,0-2.2-0.4-4.1-1.3c-1.4-0.7-2.6-1.5-3.7-2.6c-1-1.1-2.1-2.4-3.2-4c-1-1.5-1.6-3-1.5-4.2v-0.2 c0-1.3,0.6-2.5,1.6-3.4c0.3-0.3,0.7-0.5,1.1-0.5c0.1,0,0.2,0,0.4,0c0.2,0,0.3,0,0.4,0c0.3,0,0.5,0,0.6,0.1c0.1,0.1,0.2,0.3,0.3,0.6 c0.1,0.3,0.4,0.9,0.7,1.9S18,16,18,16.1c0,0.3-0.2,0.7-0.7,1.2c-0.5,0.5-0.7,0.9-0.7,1c0,0.1,0,0.2,0.1,0.3c0.5,1.1,1.2,2,2.2,3 c0.8,0.8,1.9,1.5,3.3,2.2c0.2,0.1,0.3,0.2,0.5,0.2c0.2,0,0.6-0.4,1.2-1.1S24.7,21.9,24.9,21.9L24.9,21.9z M20.5,33.4 c1.8,0,3.6-0.4,5.3-1.1c1.7-0.7,3.1-1.7,4.4-2.9c1.2-1.2,2.2-2.7,2.9-4.4c0.7-1.7,1.1-3.4,1.1-5.3c0-1.8-0.4-3.6-1.1-5.3 c-0.7-1.7-1.7-3.1-2.9-4.4s-2.7-2.2-4.4-2.9s-3.4-1.1-5.3-1.1c-1.8,0-3.6,0.4-5.3,1.1s-3.1,1.7-4.4,2.9c-1.2,1.2-2.2,2.7-2.9,4.4 c-0.7,1.7-1.1,3.4-1.1,5.3c0,2.9,0.9,5.6,2.6,8l-1.7,5.1l5.3-1.7C15.3,32.6,17.8,33.4,20.5,33.4z M20.5,3.4c2.2,0,4.3,0.4,6.3,1.3 s3.8,2,5.2,3.5c1.5,1.5,2.6,3.2,3.5,5.2c0.9,2,1.3,4.1,1.3,6.3c0,2.2-0.4,4.3-1.3,6.3s-2,3.8-3.5,5.2c-1.5,1.5-3.2,2.6-5.2,3.5 s-4.1,1.3-6.3,1.3c-2.8,0-5.5-0.7-7.9-2L3.5,37l3-8.8c-1.6-2.6-2.3-5.4-2.3-8.4c0-2.2,0.4-4.3,1.3-6.3s2-3.8,3.5-5.2 s3.2-2.6,5.2-3.5S18.2,3.4,20.5,3.4z"/></symbol>
	<symbol id="arrow-left-alt-light" viewBox="0 0 40 40"><path d="M9.8,20L24.4,5.4c0.2-0.2,0.5-0.2,0.7,0l1.5,1.5c0.2,0.2,0.2,0.5,0,0.7L14.3,20l12.4,12.4c0.2,0.2,0.2,0.5,0,0.7l-1.6,1.6 c-0.2,0.2-0.5,0.2-0.7,0L9.8,20z"/></symbol>
</svg>
